<svg width="200" height="200" viewBox="0 0 200 200" fill="none" xmlns="http://www.w3.org/2000/svg">
  <circle cx="100" cy="100" r="98" fill="#0d1117" stroke="#5eead4" stroke-width="2"/>
  <!-- AWS smile arc -->
  <path d="M62 120 C75 135 125 135 138 120" stroke="#5eead4" stroke-width="3" fill="none" stroke-linecap="round"/>
  <!-- Arrow on the smile -->
  <polygon points="134,116 142,122 134,128" fill="#5eead4"/>
  <!-- Cloud shape -->
  <path d="M72 95 C72 84 80 76 90 76 C92 70 98 65 106 65 C116 65 124 72 125 82 C130 82 136 87 136 93 C136 100 130 105 124 105 L78 105 C74 105 72 100 72 95Z" fill="#5eead4" opacity="0.2" stroke="#5eead4" stroke-width="1.5"/>
  <!-- AWS text -->
  <text x="100" y="100" fill="#5eead4" font-size="18" text-anchor="middle" font-family="monospace" font-weight="bold" letter-spacing="2">AWS</text>
  <!-- Service icons (dots representing EC2, S3, SageMaker) -->
  <circle cx="76" cy="113" r="3" fill="#5eead4" opacity="0.6"/>
  <circle cx="88" cy="113" r="3" fill="#5eead4" opacity="0.6"/>
  <circle cx="100" cy="113" r="3" fill="#5eead4" opacity="0.6"/>
  <!-- Label -->
  <text x="100" y="155" fill="#eae5ec" font-size="11" text-anchor="middle" font-family="monospace" font-weight="bold">Amazon Web</text>
  <text x="100" y="170" fill="#eae5ec" font-size="11" text-anchor="middle" font-family="monospace" font-weight="bold">Services</text>
  <text x="100" y="188" fill="#5eead4" font-size="10" text-anchor="middle" font-family="monospace" opacity="0.6">EC2 · S3 · SageMaker</text>
</svg>
