<svg width="200" height="200" viewBox="0 0 200 200" fill="none" xmlns="http://www.w3.org/2000/svg">
  <circle cx="100" cy="100" r="98" fill="#0d1117" stroke="#5eead4" stroke-width="2"/>
  <!-- Docker whale body -->
  <path d="M55 108 C55 95 65 85 80 85 L148 85 C155 85 160 90 160 96 C160 100 158 103 154 105 C156 107 157 110 156 113 C154 120 148 124 140 124 L70 124 C61 124 55 117 55 108Z" fill="#5eead4" opacity="0.2" stroke="#5eead4" stroke-width="1.5"/>
  <!-- Container stack on whale -->
  <rect x="70" y="70" width="14" height="14" rx="2" fill="#5eead4" opacity="0.8"/>
  <rect x="88" y="70" width="14" height="14" rx="2" fill="#5eead4" opacity="0.8"/>
  <rect x="106" y="70" width="14" height="14" rx="2" fill="#5eead4" opacity="0.8"/>
  <rect x="70" y="56" width="14" height="14" rx="2" fill="#5eead4" opacity="0.5"/>
  <rect x="88" y="56" width="14" height="14" rx="2" fill="#5eead4" opacity="0.5"/>
  <rect x="88" y="42" width="14" height="14" rx="2" fill="#5eead4" opacity="0.3"/>
  <!-- Whale spout -->
  <path d="M148 85 C148 80 150 72 148 65 C147 62 152 58 156 62 C158 68 156 78 155 85" stroke="#5eead4" stroke-width="2" fill="none" stroke-linecap="round"/>
  <!-- Water wave below whale -->
  <path d="M48 130 C58 125 68 135 78 130 C88 125 98 135 108 130 C118 125 128 135 138 130 C148 125 155 130 160 130" stroke="#5eead4" stroke-width="1.5" fill="none" stroke-linecap="round" opacity="0.5"/>
  <!-- Label -->
  <text x="100" y="158" fill="#eae5ec" font-size="14" text-anchor="middle" font-family="monospace" font-weight="bold" letter-spacing="2">DOCKER</text>
  <text x="100" y="175" fill="#5eead4" font-size="11" text-anchor="middle" font-family="monospace" opacity="0.7">Containerization</text>
</svg>
