<svg viewBox="0 0 800 450" fill="none" xmlns="http://www.w3.org/2000/svg">
  <rect width="800" height="450" fill="#0a0e17"/>

  <!-- Grid lines -->
  <line x1="60" y1="60" x2="60" y2="320" stroke="#1e2535" stroke-width="1"/>
  <line x1="60" y1="320" x2="740" y2="320" stroke="#1e2535" stroke-width="1"/>
  <line x1="60" y1="240" x2="740" y2="240" stroke="#1e2535" stroke-width="1" stroke-dasharray="4,4"/>
  <line x1="60" y1="160" x2="740" y2="160" stroke="#1e2535" stroke-width="1" stroke-dasharray="4,4"/>
  <line x1="60" y1="80" x2="740" y2="80" stroke="#1e2535" stroke-width="1" stroke-dasharray="4,4"/>

  <!-- Y-axis labels -->
  <text x="45" y="324" fill="#4a5568" font-size="11" text-anchor="end" font-family="monospace">0</text>
  <text x="45" y="244" fill="#4a5568" font-size="11" text-anchor="end" font-family="monospace">25</text>
  <text x="45" y="164" fill="#4a5568" font-size="11" text-anchor="end" font-family="monospace">50</text>
  <text x="45" y="84" fill="#4a5568" font-size="11" text-anchor="end" font-family="monospace">75</text>

  <!-- Bar chart - 6 groups -->
  <!-- Group 1 -->
  <rect x="90" y="200" width="28" height="120" rx="3" fill="#5eead4" opacity="0.9"/>
  <rect x="122" y="230" width="28" height="90" rx="3" fill="#3b82f6" opacity="0.7"/>

  <!-- Group 2 -->
  <rect x="185" y="150" width="28" height="170" rx="3" fill="#5eead4" opacity="0.9"/>
  <rect x="217" y="190" width="28" height="130" rx="3" fill="#3b82f6" opacity="0.7"/>

  <!-- Group 3 -->
  <rect x="280" y="120" width="28" height="200" rx="3" fill="#5eead4" opacity="0.9"/>
  <rect x="312" y="160" width="28" height="160" rx="3" fill="#3b82f6" opacity="0.7"/>

  <!-- Group 4 -->
  <rect x="375" y="90" width="28" height="230" rx="3" fill="#5eead4" opacity="0.9"/>
  <rect x="407" y="140" width="28" height="180" rx="3" fill="#3b82f6" opacity="0.7"/>

  <!-- Group 5 -->
  <rect x="470" y="110" width="28" height="210" rx="3" fill="#5eead4" opacity="0.9"/>
  <rect x="502" y="155" width="28" height="165" rx="3" fill="#3b82f6" opacity="0.7"/>

  <!-- Group 6 -->
  <rect x="565" y="75" width="28" height="245" rx="3" fill="#5eead4" opacity="0.9"/>
  <rect x="597" y="120" width="28" height="200" rx="3" fill="#3b82f6" opacity="0.7"/>

  <!-- X-axis labels -->
  <text x="120" y="340" fill="#4a5568" font-size="10" text-anchor="middle" font-family="monospace">Q1</text>
  <text x="215" y="340" fill="#4a5568" font-size="10" text-anchor="middle" font-family="monospace">Q2</text>
  <text x="310" y="340" fill="#4a5568" font-size="10" text-anchor="middle" font-family="monospace">Q3</text>
  <text x="405" y="340" fill="#4a5568" font-size="10" text-anchor="middle" font-family="monospace">Q4</text>
  <text x="500" y="340" fill="#4a5568" font-size="10" text-anchor="middle" font-family="monospace">Q5</text>
  <text x="595" y="340" fill="#4a5568" font-size="10" text-anchor="middle" font-family="monospace">Q6</text>

  <!-- KPI Cards -->
  <rect x="640" y="80" width="130" height="60" rx="6" fill="#111827" stroke="#1e2535" stroke-width="1"/>
  <text x="705" y="103" fill="#5eead4" font-size="11" text-anchor="middle" font-family="monospace">EFFICIENCY</text>
  <text x="705" y="126" fill="#eae5ec" font-size="20" text-anchor="middle" font-family="monospace" font-weight="bold">+40%</text>

  <rect x="640" y="155" width="130" height="60" rx="6" fill="#111827" stroke="#1e2535" stroke-width="1"/>
  <text x="705" y="178" fill="#5eead4" font-size="11" text-anchor="middle" font-family="monospace">ACCURACY</text>
  <text x="705" y="201" fill="#eae5ec" font-size="20" text-anchor="middle" font-family="monospace" font-weight="bold">+45%</text>

  <rect x="640" y="230" width="130" height="60" rx="6" fill="#111827" stroke="#1e2535" stroke-width="1"/>
  <text x="705" y="253" fill="#5eead4" font-size="11" text-anchor="middle" font-family="monospace">COST SAVED</text>
  <text x="705" y="276" fill="#eae5ec" font-size="20" text-anchor="middle" font-family="monospace" font-weight="bold">-10%</text>

  <!-- Legend -->
  <rect x="90" y="365" width="12" height="12" rx="2" fill="#5eead4" opacity="0.9"/>
  <text x="108" y="376" fill="#9ca3af" font-size="12" font-family="monospace">Pipeline Output</text>
  <rect x="230" y="365" width="12" height="12" rx="2" fill="#3b82f6" opacity="0.7"/>
  <text x="248" y="376" fill="#9ca3af" font-size="12" font-family="monospace">Baseline</text>

  <!-- Title -->
  <text x="400" y="420" fill="#4a5568" font-size="13" text-anchor="middle" font-family="monospace">GTM &amp; Product Data Analytics Platform — dbt · Airflow · Tableau</text>
</svg>
