<svg width="800" height="450" viewBox="0 0 800 450" fill="none" xmlns="http://www.w3.org/2000/svg">
  <rect width="800" height="450" fill="#0a0e17"/>

  <!-- Section label -->
  <text x="30" y="38" fill="#5eead4" font-size="12" font-family="monospace" font-weight="bold">OCCUPANCY HEATMAP</text>
  <text x="430" y="38" fill="#5eead4" font-size="12" font-family="monospace" font-weight="bold">FORECAST TREND</text>

  <!-- Divider -->
  <line x1="390" y1="50" x2="390" y2="340" stroke="#1e2535" stroke-width="1"/>

  <!-- Heatmap grid (7 cols x 8 rows) -->
  <!-- Row 1 -->
  <rect x="30" y="55" width="46" height="32" rx="3" fill="#5eead4" opacity="0.15"/>
  <rect x="82" y="55" width="46" height="32" rx="3" fill="#5eead4" opacity="0.45"/>
  <rect x="134" y="55" width="46" height="32" rx="3" fill="#5eead4" opacity="0.7"/>
  <rect x="186" y="55" width="46" height="32" rx="3" fill="#5eead4" opacity="0.9"/>
  <rect x="238" y="55" width="46" height="32" rx="3" fill="#5eead4" opacity="0.6"/>
  <rect x="290" y="55" width="46" height="32" rx="3" fill="#5eead4" opacity="0.3"/>
  <rect x="342" y="55" width="38" height="32" rx="3" fill="#5eead4" opacity="0.1"/>

  <!-- Row 2 -->
  <rect x="30" y="93" width="46" height="32" rx="3" fill="#5eead4" opacity="0.3"/>
  <rect x="82" y="93" width="46" height="32" rx="3" fill="#5eead4" opacity="0.6"/>
  <rect x="134" y="93" width="46" height="32" rx="3" fill="#5eead4" opacity="0.85"/>
  <rect x="186" y="93" width="46" height="32" rx="3" fill="#f59e0b" opacity="0.8"/>
  <rect x="238" y="93" width="46" height="32" rx="3" fill="#5eead4" opacity="0.75"/>
  <rect x="290" y="93" width="46" height="32" rx="3" fill="#5eead4" opacity="0.5"/>
  <rect x="342" y="93" width="38" height="32" rx="3" fill="#5eead4" opacity="0.2"/>

  <!-- Row 3 -->
  <rect x="30" y="131" width="46" height="32" rx="3" fill="#5eead4" opacity="0.5"/>
  <rect x="82" y="131" width="46" height="32" rx="3" fill="#5eead4" opacity="0.8"/>
  <rect x="134" y="131" width="46" height="32" rx="3" fill="#f59e0b" opacity="0.9"/>
  <rect x="186" y="131" width="46" height="32" rx="3" fill="#ef4444" opacity="0.85"/>
  <rect x="238" y="131" width="46" height="32" rx="3" fill="#f59e0b" opacity="0.8"/>
  <rect x="290" y="131" width="46" height="32" rx="3" fill="#5eead4" opacity="0.65"/>
  <rect x="342" y="131" width="38" height="32" rx="3" fill="#5eead4" opacity="0.35"/>

  <!-- Row 4 -->
  <rect x="30" y="169" width="46" height="32" rx="3" fill="#5eead4" opacity="0.6"/>
  <rect x="82" y="169" width="46" height="32" rx="3" fill="#f59e0b" opacity="0.7"/>
  <rect x="134" y="169" width="46" height="32" rx="3" fill="#ef4444" opacity="0.9"/>
  <rect x="186" y="169" width="46" height="32" rx="3" fill="#ef4444" opacity="0.95"/>
  <rect x="238" y="169" width="46" height="32" rx="3" fill="#ef4444" opacity="0.8"/>
  <rect x="290" y="169" width="46" height="32" rx="3" fill="#f59e0b" opacity="0.6"/>
  <rect x="342" y="169" width="38" height="32" rx="3" fill="#5eead4" opacity="0.4"/>

  <!-- Row 5 -->
  <rect x="30" y="207" width="46" height="32" rx="3" fill="#5eead4" opacity="0.4"/>
  <rect x="82" y="207" width="46" height="32" rx="3" fill="#5eead4" opacity="0.75"/>
  <rect x="134" y="207" width="46" height="32" rx="3" fill="#f59e0b" opacity="0.85"/>
  <rect x="186" y="207" width="46" height="32" rx="3" fill="#ef4444" opacity="0.8"/>
  <rect x="238" y="207" width="46" height="32" rx="3" fill="#f59e0b" opacity="0.7"/>
  <rect x="290" y="207" width="46" height="32" rx="3" fill="#5eead4" opacity="0.55"/>
  <rect x="342" y="207" width="38" height="32" rx="3" fill="#5eead4" opacity="0.25"/>

  <!-- Row 6 -->
  <rect x="30" y="245" width="46" height="32" rx="3" fill="#5eead4" opacity="0.2"/>
  <rect x="82" y="245" width="46" height="32" rx="3" fill="#5eead4" opacity="0.5"/>
  <rect x="134" y="245" width="46" height="32" rx="3" fill="#5eead4" opacity="0.7"/>
  <rect x="186" y="245" width="46" height="32" rx="3" fill="#5eead4" opacity="0.85"/>
  <rect x="238" y="245" width="46" height="32" rx="3" fill="#5eead4" opacity="0.6"/>
  <rect x="290" y="245" width="46" height="32" rx="3" fill="#5eead4" opacity="0.4"/>
  <rect x="342" y="245" width="38" height="32" rx="3" fill="#5eead4" opacity="0.15"/>

  <!-- Heatmap X labels -->
  <text x="53" y="298" fill="#4a5568" font-size="10" text-anchor="middle" font-family="monospace">MON</text>
  <text x="105" y="298" fill="#4a5568" font-size="10" text-anchor="middle" font-family="monospace">TUE</text>
  <text x="157" y="298" fill="#4a5568" font-size="10" text-anchor="middle" font-family="monospace">WED</text>
  <text x="209" y="298" fill="#4a5568" font-size="10" text-anchor="middle" font-family="monospace">THU</text>
  <text x="261" y="298" fill="#4a5568" font-size="10" text-anchor="middle" font-family="monospace">FRI</text>
  <text x="313" y="298" fill="#4a5568" font-size="10" text-anchor="middle" font-family="monospace">SAT</text>
  <text x="361" y="298" fill="#4a5568" font-size="10" text-anchor="middle" font-family="monospace">SUN</text>

  <!-- Forecast chart -->
  <!-- Grid -->
  <line x1="410" y1="80" x2="770" y2="80" stroke="#1e2535" stroke-width="1" stroke-dasharray="3,3"/>
  <line x1="410" y1="140" x2="770" y2="140" stroke="#1e2535" stroke-width="1" stroke-dasharray="3,3"/>
  <line x1="410" y1="200" x2="770" y2="200" stroke="#1e2535" stroke-width="1" stroke-dasharray="3,3"/>
  <line x1="410" y1="260" x2="770" y2="260" stroke="#1e2535" stroke-width="1" stroke-dasharray="3,3"/>
  <line x1="410" y1="320" x2="770" y2="320" stroke="#1e2535" stroke-width="1"/>

  <!-- Actual line -->
  <polyline points="410,290 460,250 510,220 560,240 610,190 660,160 710,130" stroke="#5eead4" stroke-width="2.5" fill="none" stroke-linejoin="round"/>
  <!-- Area fill -->
  <polygon points="410,290 460,250 510,220 560,240 610,190 660,160 710,130 710,320 410,320" fill="#5eead4" opacity="0.06"/>

  <!-- Forecast line (dashed) -->
  <polyline points="710,130 740,110 770,90" stroke="#5eead4" stroke-width="2" fill="none" stroke-dasharray="5,4" stroke-linejoin="round"/>

  <!-- Dots on actual line -->
  <circle cx="410" cy="290" r="4" fill="#5eead4"/>
  <circle cx="510" cy="220" r="4" fill="#5eead4"/>
  <circle cx="610" cy="190" r="4" fill="#5eead4"/>
  <circle cx="710" cy="130" r="5" fill="#5eead4" stroke="#0a0e17" stroke-width="2"/>

  <!-- Annotation -->
  <rect x="625" y="100" width="100" height="28" rx="4" fill="#111827" stroke="#5eead4" stroke-width="1" opacity="0.9"/>
  <text x="675" y="119" fill="#5eead4" font-size="11" text-anchor="middle" font-family="monospace">+25% on-time</text>

  <!-- Forecast label -->
  <text x="750" y="88" fill="#4a5568" font-size="10" font-family="monospace">FCST</text>

  <!-- Legend -->
  <rect x="30" y="315" width="10" height="10" rx="2" fill="#5eead4" opacity="0.3"/>
  <text x="45" y="325" fill="#9ca3af" font-size="11" font-family="monospace">Low</text>
  <rect x="90" y="315" width="10" height="10" rx="2" fill="#f59e0b" opacity="0.8"/>
  <text x="105" y="325" fill="#9ca3af" font-size="11" font-family="monospace">Medium</text>
  <rect x="175" y="315" width="10" height="10" rx="2" fill="#ef4444" opacity="0.85"/>
  <text x="190" y="325" fill="#9ca3af" font-size="11" font-family="monospace">High</text>

  <!-- Title -->
  <text x="400" y="410" fill="#4a5568" font-size="13" text-anchor="middle" font-family="monospace">Interactive Parking Analytics &amp; Forecasting — Python · ML · Tableau</text>
</svg>
