<svg width="200" height="200" viewBox="0 0 200 200" fill="none" xmlns="http://www.w3.org/2000/svg">
  <circle cx="100" cy="100" r="98" fill="#0d1117" stroke="#5eead4" stroke-width="2"/>
  <!-- Scatter plot with classification boundary -->
  <!-- Grid -->
  <line x1="55" y1="145" x2="155" y2="145" stroke="#1e2535" stroke-width="1"/>
  <line x1="55" y1="55" x2="55" y2="145" stroke="#1e2535" stroke-width="1"/>
  <!-- Decision boundary curve -->
  <path d="M55 130 C70 115 85 105 100 95 C115 85 130 75 155 65" stroke="#5eead4" stroke-width="2" fill="none" stroke-dasharray="5,3"/>
  <!-- Class 1 dots (teal - above boundary) -->
  <circle cx="70" cy="72" r="5" fill="#5eead4" opacity="0.9"/>
  <circle cx="82" cy="65" r="5" fill="#5eead4" opacity="0.9"/>
  <circle cx="95" cy="75" r="5" fill="#5eead4" opacity="0.9"/>
  <circle cx="78" cy="82" r="5" fill="#5eead4" opacity="0.9"/>
  <circle cx="108" cy="68" r="5" fill="#5eead4" opacity="0.9"/>
  <circle cx="122" cy="72" r="5" fill="#5eead4" opacity="0.9"/>
  <circle cx="135" cy="62" r="5" fill="#5eead4" opacity="0.9"/>
  <!-- Class 2 dots (white - below boundary) -->
  <circle cx="68" cy="118" r="5" fill="#eae5ec" opacity="0.7"/>
  <circle cx="82" cy="128" r="5" fill="#eae5ec" opacity="0.7"/>
  <circle cx="75" cy="108" r="5" fill="#eae5ec" opacity="0.7"/>
  <circle cx="95" cy="132" r="5" fill="#eae5ec" opacity="0.7"/>
  <circle cx="110" cy="120" r="5" fill="#eae5ec" opacity="0.7"/>
  <circle cx="122" cy="112" r="5" fill="#eae5ec" opacity="0.7"/>
  <circle cx="138" cy="130" r="5" fill="#eae5ec" opacity="0.7"/>
  <!-- Legend -->
  <circle cx="65" cy="158" r="4" fill="#5eead4" opacity="0.9"/>
  <text x="74" y="162" fill="#9ca3af" font-size="9" font-family="monospace">Class A</text>
  <circle cx="112" cy="158" r="4" fill="#eae5ec" opacity="0.7"/>
  <text x="121" y="162" fill="#9ca3af" font-size="9" font-family="monospace">Class B</text>
  <!-- Label -->
  <text x="100" y="180" fill="#eae5ec" font-size="12" text-anchor="middle" font-family="monospace" font-weight="bold" letter-spacing="1">Scikit-learn</text>
  <text x="100" y="195" fill="#5eead4" font-size="10" text-anchor="middle" font-family="monospace" opacity="0.6">ML Library</text>
</svg>
