<svg width="200" height="200" viewBox="0 0 200 200" fill="none" xmlns="http://www.w3.org/2000/svg">
  <circle cx="100" cy="100" r="98" fill="#0d1117" stroke="#5eead4" stroke-width="2"/>
  <!-- Tableau cross-bar chart icon -->
  <!-- Vertical center bars -->
  <rect x="96" y="42" width="8" height="36" rx="2" fill="#5eead4"/>
  <rect x="96" y="122" width="8" height="36" rx="2" fill="#5eead4"/>
  <!-- Horizontal center bars -->
  <rect x="42" y="96" width="36" height="8" rx="2" fill="#5eead4"/>
  <rect x="122" y="96" width="36" height="8" rx="2" fill="#5eead4"/>
  <!-- Diagonal shorter bars (top-left) -->
  <rect x="60" y="58" width="6" height="24" rx="2" fill="#5eead4" opacity="0.6"/>
  <rect x="51" y="66" width="24" height="6" rx="2" fill="#5eead4" opacity="0.6"/>
  <!-- Diagonal shorter bars (top-right) -->
  <rect x="134" y="58" width="6" height="24" rx="2" fill="#5eead4" opacity="0.6"/>
  <rect x="125" y="66" width="24" height="6" rx="2" fill="#5eead4" opacity="0.6"/>
  <!-- Diagonal shorter bars (bottom-left) -->
  <rect x="60" y="118" width="6" height="24" rx="2" fill="#5eead4" opacity="0.6"/>
  <rect x="51" y="128" width="24" height="6" rx="2" fill="#5eead4" opacity="0.6"/>
  <!-- Diagonal shorter bars (bottom-right) -->
  <rect x="134" y="118" width="6" height="24" rx="2" fill="#5eead4" opacity="0.6"/>
  <rect x="125" y="128" width="24" height="6" rx="2" fill="#5eead4" opacity="0.6"/>
  <!-- Center dot -->
  <circle cx="100" cy="100" r="6" fill="#5eead4"/>
  <!-- Label -->
  <text x="100" y="178" fill="#eae5ec" font-size="13" text-anchor="middle" font-family="monospace" font-weight="bold" letter-spacing="2">TABLEAU</text>
  <text x="100" y="193" fill="#5eead4" font-size="10" text-anchor="middle" font-family="monospace" opacity="0.6">Visualization</text>
</svg>
